<svg width="21" height="21" viewBox="0 0 21 21" fill="none" xmlns="http://www.w3.org/2000/svg">
<path d="M17.5612 5.55659H13.125V6.79034H17.5788L17.5612 5.55659ZM16.625 14.0441C16.2885 14.2671 15.891 14.3802 15.4875 14.3678C15.2204 14.3957 14.9504 14.3681 14.6945 14.2868C14.4385 14.2055 14.2021 14.0722 14 13.8953C13.6264 13.4717 13.4319 12.9196 13.4575 12.3553H19.25C19.2918 11.7678 19.2416 11.1774 19.1012 10.6053C18.9655 10.0611 18.728 9.54749 18.4013 9.09159C18.0724 8.64936 17.6476 8.28739 17.1588 8.03284C16.6149 7.76469 16.0151 7.62972 15.4088 7.63909C14.8385 7.63491 14.2732 7.74499 13.7463 7.96284C13.2637 8.16627 12.8264 8.46371 12.46 8.83784C12.0946 9.21944 11.8116 9.67216 11.6287 10.1678C11.4325 10.7029 11.3347 11.2691 11.34 11.8391C11.331 12.4171 11.4258 12.9921 11.62 13.5366C11.7849 14.0297 12.0467 14.4848 12.39 14.8753C12.7452 15.2587 13.1817 15.5577 13.6675 15.7503C14.2092 15.9567 14.7854 16.0577 15.365 16.0478C16.1782 16.0732 16.9812 15.8603 17.675 15.4353C18.3758 14.9373 18.8803 14.2099 19.1012 13.3791H17.1675C17.064 13.654 16.8735 13.8875 16.625 14.0441ZM13.6237 10.4391C13.6919 10.2209 13.8049 10.0195 13.9556 9.84766C14.1063 9.67586 14.2913 9.53753 14.4987 9.44159C14.7735 9.31794 15.0726 9.25811 15.3737 9.26659C15.5913 9.24801 15.8103 9.27671 16.0157 9.35071C16.2211 9.42472 16.4081 9.54228 16.5638 9.69534C16.8611 10.0593 17.0519 10.4984 17.115 10.9641H13.4837C13.4979 10.7863 13.5302 10.6104 13.58 10.4391H13.6237ZM8.995 10.0191C9.44034 9.83364 9.82731 9.53132 10.115 9.14409C10.3794 8.73284 10.5108 8.25013 10.4912 7.76159C10.5084 7.31607 10.4215 6.87268 10.2375 6.46659C10.0829 6.11476 9.83472 5.81211 9.52 5.59159C9.18632 5.36231 8.80741 5.20717 8.40875 5.13659C7.93697 5.03764 7.45576 4.99069 6.97375 4.99659H1.75V16.0041H7.0875C7.5746 16.0044 8.05976 15.9427 8.53125 15.8203C8.97815 15.7047 9.40154 15.5123 9.7825 15.2516C10.1515 14.9958 10.452 14.6533 10.6575 14.2541C10.8849 13.8077 10.9963 13.3111 10.9813 12.8103C10.9978 12.1897 10.8238 11.579 10.4825 11.0603C10.1155 10.5388 9.5712 10.1686 8.95125 10.0191H8.995ZM4.17375 6.87784H6.44C6.6482 6.87758 6.85604 6.89514 7.06125 6.93034C7.25021 6.95834 7.43167 7.02379 7.595 7.12284C7.7528 7.2121 7.88067 7.34606 7.9625 7.50784C8.06384 7.70184 8.11214 7.91917 8.1025 8.13784C8.1188 8.32617 8.09 8.51568 8.01849 8.69067C7.94697 8.86565 7.83479 9.02108 7.69125 9.14409C7.3781 9.35936 7.0034 9.46686 6.62375 9.45034H4.17375V6.87784ZM8.40875 13.3878C8.31885 13.5662 8.18291 13.7172 8.015 13.8253C7.84027 13.934 7.64773 14.011 7.44625 14.0528C7.2223 14.103 6.99321 14.1265 6.76375 14.1228H4.13875V11.1041H6.76375C7.21421 11.0844 7.65906 11.2101 8.0325 11.4628C8.20121 11.6142 8.3319 11.8032 8.41399 12.0145C8.49608 12.2258 8.52725 12.4535 8.505 12.6791C8.52866 12.9196 8.49569 13.1623 8.40875 13.3878V13.3878Z" fill="#9FB2DD"/>
</svg>
