<svg width="24" height="24" viewBox="0 0 24 24" fill="none" xmlns="http://www.w3.org/2000/svg">
<path d="M12 2.24609C9.62547 2.24619 7.32846 3.09121 5.51996 4.62994C3.71146 6.16867 2.5095 8.30071 2.12913 10.6446C1.74876 12.9884 2.21481 15.3912 3.4439 17.4228C4.67298 19.4545 6.58488 20.9826 8.83752 21.7336C9.33752 21.8211 9.52502 21.5211 9.52502 21.2586C9.52502 21.0211 9.51251 20.2336 9.51251 19.3961C7 19.8586 6.35 18.7836 6.15 18.2211C5.92807 17.674 5.57627 17.1892 5.125 16.8086C4.775 16.6211 4.275 16.1586 5.11249 16.1461C5.43227 16.1808 5.73898 16.2921 6.00663 16.4705C6.27427 16.6489 6.49496 16.8892 6.65 17.1711C6.78677 17.4168 6.97068 17.6331 7.19119 17.8076C7.4117 17.9821 7.66447 18.1114 7.93503 18.188C8.20559 18.2646 8.48861 18.2871 8.76788 18.2542C9.04714 18.2213 9.31717 18.1336 9.56248 17.9961C9.60577 17.4877 9.83234 17.0124 10.2 16.6586C7.975 16.4086 5.65 15.5461 5.65 11.7211C5.63594 10.7273 6.00268 9.7657 6.675 9.03362C6.36928 8.16984 6.40505 7.22191 6.775 6.38362C6.775 6.38362 7.61247 6.12111 9.525 7.40862C11.1613 6.9586 12.8887 6.9586 14.525 7.40862C16.4375 6.10862 17.275 6.38362 17.275 6.38362C17.645 7.2219 17.6808 8.16985 17.375 9.03362C18.0493 9.76445 18.4164 10.7269 18.4 11.7211C18.4 15.5586 16.0625 16.4086 13.8375 16.6586C14.0761 16.9005 14.2599 17.1909 14.3764 17.5101C14.4929 17.8293 14.5393 18.1699 14.5125 18.5086C14.5125 19.8461 14.5 20.9211 14.5 21.2586C14.5 21.5211 14.6875 21.8336 15.1875 21.7336C17.4362 20.9765 19.3426 19.4449 20.5664 17.4121C21.7903 15.3794 22.2519 12.9779 21.8689 10.6363C21.4859 8.29474 20.2832 6.16547 18.4755 4.6286C16.6678 3.09174 14.3727 2.24733 12 2.24609V2.24609Z" fill="#9FB2DD"/>
</svg>
