<svg width="18" height="18" viewBox="0 0 18 18" fill="none" xmlns="http://www.w3.org/2000/svg">
<path d="M15.3525 1.5001H2.6475C2.50468 1.49812 2.36287 1.52429 2.23017 1.57712C2.09747 1.62994 1.97648 1.7084 1.8741 1.80799C1.77172 1.90758 1.68996 2.02637 1.63349 2.15756C1.57702 2.28876 1.54695 2.42979 1.545 2.5726V15.4276C1.54695 15.5704 1.57702 15.7115 1.63349 15.8426C1.68996 15.9738 1.77172 16.0926 1.8741 16.1922C1.97648 16.2918 2.09747 16.3703 2.23017 16.4231C2.36287 16.4759 2.50468 16.5021 2.6475 16.5001H15.3525C15.4953 16.5021 15.6371 16.4759 15.7698 16.4231C15.9025 16.3703 16.0235 16.2918 16.1259 16.1922C16.2283 16.0926 16.31 15.9738 16.3665 15.8426C16.423 15.7115 16.453 15.5704 16.455 15.4276V2.5726C16.453 2.42979 16.423 2.28876 16.3665 2.15756C16.31 2.02637 16.2283 1.90758 16.1259 1.80799C16.0235 1.7084 15.9025 1.62994 15.7698 1.57712C15.6371 1.52429 15.4953 1.49812 15.3525 1.5001V1.5001ZM6.0675 14.0551H3.8175V7.3051H6.0675V14.0551ZM4.9425 6.3601C4.63219 6.3601 4.3346 6.23684 4.11518 6.01742C3.89577 5.798 3.7725 5.50041 3.7725 5.1901C3.7725 4.8798 3.89577 4.58221 4.11518 4.36279C4.3346 4.14337 4.63219 4.0201 4.9425 4.0201C5.10727 4.00142 5.27413 4.01775 5.43215 4.06802C5.59018 4.11829 5.7358 4.20137 5.85949 4.31183C5.98318 4.42228 6.08214 4.55761 6.1499 4.70897C6.21766 4.86032 6.25269 5.02428 6.25269 5.1901C6.25269 5.35593 6.21766 5.51989 6.1499 5.67124C6.08214 5.8226 5.98318 5.95793 5.85949 6.06838C5.7358 6.17884 5.59018 6.26192 5.43215 6.31219C5.27413 6.36246 5.10727 6.37879 4.9425 6.3601V6.3601ZM14.1825 14.0551H11.9325V10.4326C11.9325 9.5251 11.61 8.93261 10.7925 8.93261C10.5395 8.93446 10.2931 9.01381 10.0866 9.15998C9.88011 9.30615 9.72336 9.51211 9.6375 9.75011C9.57881 9.92639 9.55337 10.112 9.5625 10.2976V14.0476H7.3125C7.3125 14.0476 7.3125 7.9126 7.3125 7.2976H9.5625V8.25011C9.7669 7.89543 10.0642 7.60324 10.4223 7.40501C10.7805 7.20677 11.1859 7.10999 11.595 7.1251C13.095 7.1251 14.1825 8.09261 14.1825 10.1701V14.0551Z" fill="#9FB2DD"/>
</svg>
