<svg width="359" height="426" viewBox="0 0 359 426" fill="none" xmlns="http://www.w3.org/2000/svg">
<path d="M205.71 173.11C206.48 173.11 206.96 173.96 206.56 174.62L168.98 236.92C168.76 237.28 168.52 237.64 168.26 237.97C163.82 243.44 159.67 241.52 157.36 239.59C156.37 238.77 155.56 237.75 154.89 236.64L103.03 150.68V292.11C103.03 292.85 102.25 293.33 101.59 293L85.58 285C85.24 284.83 85.03 284.49 85.03 284.11V118.65C85.03 113.66 89.11 109.29 94.09 109.32C96.55 109.34 98.78 110.34 100.39 111.96C100.87 112.44 101.59 113.46 101.94 114.03L162.07 213.7L186.27 173.59C186.45 173.29 186.77 173.11 187.12 173.11H205.71V173.11Z" fill="#B1C7FF"/>
<path d="M264.47 118.65V352.36C264.47 353.1 263.69 353.58 263.03 353.25L247.02 345.25C246.68 345.08 246.47 344.74 246.47 344.36V154.26C246.47 153.25 245.14 152.88 244.62 153.75L203.26 222.38C203.08 222.68 202.76 222.86 202.41 222.86H183.71C182.94 222.86 182.46 222.01 182.86 221.35L247.56 114.04C247.91 113.47 248.63 112.45 249.11 111.97C250.72 110.35 252.95 109.35 255.41 109.33C260.39 109.29 264.47 113.66 264.47 118.65Z" fill="#B1C7FF"/>
<path d="M140.69 274.37C151.095 274.37 159.53 265.935 159.53 255.53C159.53 245.125 151.095 236.69 140.69 236.69C130.285 236.69 121.85 245.125 121.85 255.53C121.85 265.935 130.285 274.37 140.69 274.37Z" fill="#B1C7FF"/>
<path d="M204.75 274.37C215.155 274.37 223.59 265.935 223.59 255.53C223.59 245.125 215.155 236.69 204.75 236.69C194.345 236.69 185.91 245.125 185.91 255.53C185.91 265.935 194.345 274.37 204.75 274.37Z" fill="#B1C7FF"/>
<path d="M89.96 188.87C89.96 188.87 58.22 174.81 43.56 190.22C31.13 203.29 40.75 237.64 90.95 245.52C141.15 253.4 237.62 253.89 262.23 268.65" stroke="#B1C7FF" stroke-width="16" stroke-miterlimit="10"/>
<path d="M258.13 320.98C258.13 320.98 290.89 332.48 304.27 315.95C315.62 301.93 303.3 268.46 252.63 264.6" stroke="#B1C7FF" stroke-width="16" stroke-miterlimit="10"/>
<path d="M350.15 299.682V125.822C350.144 120.242 348.71 114.756 345.985 109.886C343.26 105.016 339.333 100.925 334.58 98.002L196.22 12.852C191.066 9.67967 185.132 8 179.08 8C173.028 8 167.094 9.67967 161.94 12.852L23.58 98.002C18.8254 100.925 14.8977 105.016 12.1706 109.885C9.44358 114.755 8.00783 120.241 8 125.822V299.682C7.9993 305.272 9.43099 310.768 12.1585 315.647C14.8859 320.526 18.8182 324.625 23.58 327.552L161.94 412.652C167.096 415.82 173.029 417.497 179.08 417.497C185.131 417.497 191.064 415.82 196.22 412.652L334.58 327.552C339.341 324.624 343.271 320.525 345.997 315.646C348.723 310.767 350.153 305.271 350.15 299.682V299.682Z" stroke="#B1C7FF" stroke-width="16" stroke-miterlimit="10"/>
</svg>
