<svg width="359" height="426" viewBox="0 0 359 426" fill="none" xmlns="http://www.w3.org/2000/svg">
<path d="M205.71 164.112C205.886 164.114 206.058 164.162 206.209 164.252C206.36 164.341 206.485 164.469 206.571 164.622C206.657 164.775 206.702 164.948 206.7 165.123C206.698 165.299 206.65 165.471 206.56 165.622L169 227.922C168.781 228.286 168.54 228.637 168.28 228.972C163.84 234.442 159.69 232.522 157.38 230.592C156.393 229.739 155.558 228.725 154.91 227.592L103.05 141.592V283.112C103.049 283.281 103.004 283.447 102.922 283.595C102.839 283.742 102.72 283.866 102.576 283.955C102.432 284.044 102.268 284.095 102.099 284.103C101.93 284.111 101.762 284.077 101.61 284.002L85.61 276.002C85.4451 275.919 85.3064 275.792 85.2093 275.635C85.1122 275.478 85.0606 275.297 85.06 275.112V109.652C85.0513 107.222 85.9947 104.884 87.688 103.14C89.3814 101.397 91.6901 100.385 94.12 100.322C96.4853 100.34 98.7485 101.289 100.42 102.962C100.999 103.603 101.518 104.296 101.97 105.032L162.1 204.702L186.3 164.592C186.389 164.446 186.514 164.326 186.662 164.242C186.811 164.157 186.979 164.113 187.15 164.112H205.71Z" fill="#B1C7FF"/>
<path d="M264.47 109.653V343.363C264.469 343.532 264.424 343.698 264.341 343.845C264.259 343.993 264.14 344.117 263.996 344.206C263.852 344.295 263.688 344.346 263.519 344.354C263.35 344.362 263.182 344.327 263.03 344.253L247.03 336.253C246.865 336.17 246.726 336.043 246.629 335.886C246.532 335.729 246.481 335.548 246.48 335.363V145.263C246.476 145.047 246.403 144.838 246.271 144.667C246.138 144.496 245.954 144.373 245.746 144.315C245.538 144.258 245.316 144.27 245.115 144.349C244.914 144.427 244.744 144.569 244.63 144.753L203.27 213.383C203.181 213.529 203.056 213.65 202.908 213.734C202.759 213.818 202.591 213.862 202.42 213.863H183.72C183.544 213.861 183.372 213.813 183.221 213.724C183.07 213.634 182.945 213.507 182.859 213.354C182.773 213.2 182.728 213.027 182.73 212.852C182.732 212.676 182.78 212.504 182.87 212.353L247.56 105.003C248.012 104.267 248.531 103.574 249.11 102.933C250.781 101.259 253.045 100.311 255.41 100.293C257.845 100.356 260.158 101.371 261.852 103.122C263.547 104.872 264.486 107.217 264.47 109.653Z" fill="#B1C7FF"/>
<path d="M140.69 265.371C151.095 265.371 159.53 256.936 159.53 246.531C159.53 236.126 151.095 227.691 140.69 227.691C130.285 227.691 121.85 236.126 121.85 246.531C121.85 256.936 130.285 265.371 140.69 265.371Z" fill="#B1C7FF"/>
<path d="M208.96 265.371C219.365 265.371 227.8 256.936 227.8 246.531C227.8 236.126 219.365 227.691 208.96 227.691C198.555 227.691 190.12 236.126 190.12 246.531C190.12 256.936 198.555 265.371 208.96 265.371Z" fill="#B1C7FF"/>
<path d="M93.18 208.503C93.18 208.503 58.86 174.503 43.24 183.503C27.62 192.503 40.43 230.923 90.63 238.793C140.83 246.663 237.3 247.163 261.91 261.923" stroke="#B1C7FF" stroke-width="16" stroke-miterlimit="10"/>
<path d="M254.79 290.732C254.79 290.732 289.11 324.732 304.73 315.732C320.35 306.732 307.54 268.312 257.34 260.432" stroke="#B1C7FF" stroke-width="16" stroke-miterlimit="10"/>
<path d="M350.15 299.682V125.822C350.144 120.242 348.71 114.756 345.985 109.886C343.26 105.016 339.333 100.925 334.58 98.002L196.22 12.852C191.066 9.67967 185.132 8 179.08 8C173.028 8 167.094 9.67967 161.94 12.852L23.58 98.002C18.8254 100.925 14.8977 105.016 12.1706 109.885C9.44358 114.755 8.00783 120.241 8 125.822V299.682C7.9993 305.272 9.43099 310.768 12.1585 315.647C14.8859 320.526 18.8182 324.625 23.58 327.552L161.94 412.652C167.096 415.82 173.029 417.497 179.08 417.497C185.131 417.497 191.064 415.82 196.22 412.652L334.58 327.552C339.341 324.624 343.271 320.525 345.997 315.646C348.723 310.767 350.153 305.271 350.15 299.682V299.682Z" stroke="#B1C7FF" stroke-width="16" stroke-miterlimit="10"/>
</svg>
